<svg width="46" height="46" viewBox="9 -8 10 46" fill="none" xmlns="http://www.w3.org/2000/svg">
<title>btn_google</title>
<g clip-path="url(#clip0_2007_252867)">
<path d="M2.48267 7.75007C3.8148 4.97767 6.00715 2.73996 8.71387 1.38993C11.4206 0.0399088 14.4876 -0.345588 17.4311 0.294253C18.9427 0.598405 20.3891 1.17836 21.7017 2.00664C22.3118 2.39851 22.778 2.95599 23.391 3.33751C23.6687 3.50904 23.601 3.80923 23.391 4.03252C22.3262 5.1327 21.2485 6.21958 20.1966 7.33159C19.942 7.59925 19.7923 7.42919 19.5938 7.29906C18.5865 6.63806 17.5793 5.98889 16.3736 5.73454C14.6231 5.35508 12.7995 5.58509 11.1903 6.3883C9.58109 7.19151 8.27771 8.52225 7.48564 10.1708C7.32017 10.5079 7.00649 10.7815 7.01368 11.2059C6.80217 11.2059 6.67267 11.058 6.52159 10.9353C5.17384 9.86862 3.82753 8.80688 2.48267 7.75007Z" fill="#FF4131"/>
<path d="M6.97627 16.698C8.02377 19.4485 9.83244 21.393 12.657 22.1694C15.0153 22.8141 17.2484 22.3823 19.3362 21.1061C19.4945 21.254 19.647 21.4019 19.8139 21.5498C21.0782 22.5819 22.3444 23.6121 23.6125 24.6403C21.6945 26.5361 19.3506 27.5357 16.7621 27.8699C11.844 28.5058 7.65686 26.9827 4.32874 23.1379C3.57111 22.2819 2.94824 21.3095 2.48267 20.2559L6.97627 16.698Z" fill="#00AA4B"/>
<path d="M6.97636 16.698L2.48276 20.2558C0.505747 16.0878 0.505747 11.9192 2.48276 7.75012C3.82571 8.80693 5.16866 9.86522 6.51161 10.925C6.66269 11.0433 6.79938 11.1956 7.0037 11.1956C6.45166 12.9844 6.44213 14.9035 6.97636 16.698Z" fill="#FFBD00"/>
<path d="M27.4315 11.6347C27.3653 11.1911 27.0243 11.3878 26.8113 11.3878C24.1561 11.373 21.5009 11.3705 18.8457 11.3804C17.4845 11.3804 16.1219 11.4115 14.7607 11.4292C14.5391 11.6214 14.6442 11.8832 14.6427 12.1109C14.6312 13.3264 14.6255 14.542 14.6427 15.756C14.6427 16.0813 14.5104 16.4347 14.7564 16.7335C15.0168 16.7482 15.2773 16.7749 15.5377 16.7749C17.6836 16.7857 19.8294 16.7926 21.9752 16.7956C21.7249 18.6396 20.722 19.9956 19.3335 21.1017C19.4917 21.2495 19.6443 21.3974 19.8112 21.5453C21.0755 22.5775 22.3417 23.6076 23.6098 24.6359C27.2329 21.0277 28.1667 16.59 27.4315 11.6347Z" fill="#0086F9"/>
</g>
<defs>
<clipPath id="clip0_2007_252867">
<rect width="46" height="46" fill="white"/>
</clipPath>
</defs>
</svg>
