<svg width="46" height="46" viewBox="9 -8 10 46" fill="none" xmlns="http://www.w3.org/2000/svg">
<title>btn_yandex</title>
<g clip-path="url(#clip0_2007_252885)">
<path d="M-0.0559082 14C-0.0559082 11.2311 0.765177 8.52431 2.30352 6.22202C3.84186 3.91973 6.02836 2.12532 8.58652 1.06569C11.1447 0.00606598 13.9596 -0.271181 16.6754 0.269012C19.3911 0.809205 21.8857 2.14258 23.8436 4.10051C25.8015 6.05845 27.1349 8.55301 27.6751 11.2687C28.2153 13.9845 27.938 16.7994 26.8784 19.3576C25.8188 21.9157 24.0244 24.1022 21.7221 25.6406C19.4198 27.1789 16.713 28 13.9441 28C12.1056 28 10.2851 27.6379 8.58652 26.9343C6.88796 26.2308 5.34462 25.1995 4.0446 23.8995C1.41909 21.274 -0.0559082 17.713 -0.0559082 14Z" fill="#FC3F1D"/>
<path d="M15.7919 7.93798H14.5039C12.1239 7.93798 10.8779 9.12798 10.8779 10.906C10.8779 12.908 11.7459 13.846 13.5099 15.106L14.9799 16.086L10.7799 22.372H7.62988L11.3959 16.772C9.22588 15.218 8.00788 13.706 8.00788 11.172C8.00788 7.96598 10.2479 5.78198 14.4759 5.78198H18.6759V22.302H15.7919V7.93798Z" fill="white"/>
</g>
<defs>
<clipPath id="clip0_2007_252885">
<rect width="46" height="46" fill="white"/>
</clipPath>
</defs>
</svg>
